<svg width="20" height="21" viewBox="0 0 20 21" fill="none" xmlns="http://www.w3.org/2000/svg">
<path d="M17.1833 7.54183C16.3083 3.69183 12.95 1.9585 9.99999 1.9585C9.99999 1.9585 9.99999 1.9585 9.99165 1.9585C7.04999 1.9585 3.68332 3.6835 2.80832 7.5335C1.83332 11.8335 4.46665 15.4752 6.84999 17.7668C7.73332 18.6168 8.86665 19.0418 9.99999 19.0418C11.1333 19.0418 12.2667 18.6168 13.1417 17.7668C15.525 15.4752 18.1583 11.8418 17.1833 7.54183ZM9.99999 11.7168C8.54999 11.7168 7.37499 10.5418 7.37499 9.09183C7.37499 7.64183 8.54999 6.46683 9.99999 6.46683C11.45 6.46683 12.625 7.64183 12.625 9.09183C12.625 10.5418 11.45 11.7168 9.99999 11.7168Z" fill="white"/>
</svg>
