<svg width="191" height="206" viewBox="0 0 191 206" fill="none" xmlns="http://www.w3.org/2000/svg">
<path d="M1.28441 183.645C0.25296 184.04 -0.26281 185.196 0.132401 186.228L6.57274 203.036C6.96795 204.068 8.12449 204.583 9.15594 204.188C10.1874 203.793 10.7032 202.637 10.3079 201.605L4.58319 186.664L19.524 180.94C20.5554 180.544 21.0712 179.388 20.676 178.356C20.2808 177.325 19.1242 176.809 18.0928 177.204L1.28441 183.645ZM291.683 122.699L293.385 123.75L291.683 122.699ZM290.393 70.6061L288.777 71.7854L290.393 70.6061ZM1.18541 187.339C37.7102 203.628 96.5831 210.512 153.284 202.035C209.964 193.561 265.036 169.646 293.385 123.75L289.982 121.648C262.528 166.094 208.855 189.683 152.693 198.079C96.5504 206.472 38.4825 199.592 2.81459 183.686L1.18541 187.339ZM292.008 69.4268C256.887 21.3179 166.625 -25.9795 9.47716 16.5818L10.5228 20.4427C166.567 -21.8199 254.905 25.3863 288.777 71.7854L292.008 69.4268ZM293.385 123.75C303.734 106.995 303.696 85.4365 292.008 69.4268L288.777 71.7854C299.432 86.3798 299.545 106.166 289.982 121.648L293.385 123.75Z" fill="#470FF4"/>
</svg>
