<svg width="76" height="190" viewBox="0 0 76 190" fill="none" xmlns="http://www.w3.org/2000/svg">
<circle cx="5" cy="5" r="5" fill="white"/>
<circle cx="27" cy="5" r="5" fill="white"/>
<circle cx="49" cy="5" r="5" fill="white"/>
<circle cx="71" cy="5" r="5" fill="white"/>
<circle cx="5" cy="23" r="5" fill="white"/>
<circle cx="27" cy="23" r="5" fill="white"/>
<circle cx="49" cy="23" r="5" fill="white"/>
<circle cx="71" cy="23" r="5" fill="white"/>
<circle cx="5" cy="41" r="5" fill="white"/>
<circle cx="27" cy="41" r="5" fill="white"/>
<circle cx="49" cy="41" r="5" fill="white"/>
<circle cx="71" cy="41" r="5" fill="white"/>
<circle cx="5" cy="59" r="5" fill="white"/>
<circle cx="27" cy="59" r="5" fill="white"/>
<circle cx="49" cy="59" r="5" fill="white"/>
<circle cx="71" cy="59" r="5" fill="white"/>
<circle cx="5" cy="77" r="5" fill="white"/>
<circle cx="27" cy="77" r="5" fill="white"/>
<circle cx="49" cy="77" r="5" fill="white"/>
<circle cx="71" cy="77" r="5" fill="white"/>
<circle cx="5" cy="95" r="5" fill="white"/>
<circle cx="27" cy="95" r="5" fill="white"/>
<circle cx="49" cy="95" r="5" fill="white"/>
<circle cx="71" cy="95" r="5" fill="white"/>
<circle cx="5" cy="113" r="5" fill="white"/>
<circle cx="27" cy="113" r="5" fill="white"/>
<circle cx="49" cy="113" r="5" fill="white"/>
<circle cx="71" cy="113" r="5" fill="white"/>
<circle cx="5" cy="131" r="5" fill="white"/>
<circle cx="27" cy="131" r="5" fill="white"/>
<circle cx="49" cy="131" r="5" fill="white"/>
<circle cx="71" cy="131" r="5" fill="white"/>
<circle cx="5" cy="149" r="5" fill="white"/>
<circle cx="27" cy="149" r="5" fill="white"/>
<circle cx="49" cy="149" r="5" fill="white"/>
<circle cx="71" cy="149" r="5" fill="white"/>
<circle cx="5" cy="167" r="5" fill="white"/>
<circle cx="27" cy="167" r="5" fill="white"/>
<circle cx="49" cy="167" r="5" fill="white"/>
<circle cx="71" cy="167" r="5" fill="white"/>
<circle cx="5" cy="185" r="5" fill="white"/>
<circle cx="27" cy="185" r="5" fill="white"/>
<circle cx="49" cy="185" r="5" fill="white"/>
<circle cx="71" cy="185" r="5" fill="white"/>
</svg>
