<svg width="208" height="100" viewBox="0 0 208 100" fill="none" xmlns="http://www.w3.org/2000/svg">
<circle cx="5" cy="5" r="5" fill="white"/>
<circle cx="27" cy="5" r="5" fill="white"/>
<circle cx="49" cy="5" r="5" fill="white"/>
<circle cx="71" cy="5" r="5" fill="white"/>
<circle cx="93" cy="5" r="5" fill="white"/>
<circle cx="115" cy="5" r="5" fill="white"/>
<circle cx="137" cy="5" r="5" fill="white"/>
<circle cx="159" cy="5" r="5" fill="white"/>
<circle cx="181" cy="5" r="5" fill="white"/>
<circle cx="203" cy="5" r="5" fill="white"/>
<circle cx="5" cy="23" r="5" fill="white"/>
<circle cx="27" cy="23" r="5" fill="white"/>
<circle cx="49" cy="23" r="5" fill="white"/>
<circle cx="71" cy="23" r="5" fill="white"/>
<circle cx="93" cy="23" r="5" fill="white"/>
<circle cx="115" cy="23" r="5" fill="white"/>
<circle cx="137" cy="23" r="5" fill="white"/>
<circle cx="159" cy="23" r="5" fill="white"/>
<circle cx="181" cy="23" r="5" fill="white"/>
<circle cx="203" cy="23" r="5" fill="white"/>
<circle cx="5" cy="41" r="5" fill="white"/>
<circle cx="27" cy="41" r="5" fill="white"/>
<circle cx="49" cy="41" r="5" fill="white"/>
<circle cx="71" cy="41" r="5" fill="white"/>
<circle cx="93" cy="41" r="5" fill="white"/>
<circle cx="115" cy="41" r="5" fill="white"/>
<circle cx="137" cy="41" r="5" fill="white"/>
<circle cx="159" cy="41" r="5" fill="white"/>
<circle cx="181" cy="41" r="5" fill="white"/>
<circle cx="203" cy="41" r="5" fill="white"/>
<circle cx="5" cy="59" r="5" fill="white"/>
<circle cx="27" cy="59" r="5" fill="white"/>
<circle cx="49" cy="59" r="5" fill="white"/>
<circle cx="71" cy="59" r="5" fill="white"/>
<circle cx="93" cy="59" r="5" fill="white"/>
<circle cx="115" cy="59" r="5" fill="white"/>
<circle cx="137" cy="59" r="5" fill="white"/>
<circle cx="159" cy="59" r="5" fill="white"/>
<circle cx="181" cy="59" r="5" fill="white"/>
<circle cx="203" cy="59" r="5" fill="white"/>
<circle cx="5" cy="77" r="5" fill="white"/>
<circle cx="27" cy="77" r="5" fill="white"/>
<circle cx="49" cy="77" r="5" fill="white"/>
<circle cx="71" cy="77" r="5" fill="white"/>
<circle cx="93" cy="77" r="5" fill="white"/>
<circle cx="115" cy="77" r="5" fill="white"/>
<circle cx="137" cy="77" r="5" fill="white"/>
<circle cx="159" cy="77" r="5" fill="white"/>
<circle cx="181" cy="77" r="5" fill="white"/>
<circle cx="203" cy="77" r="5" fill="white"/>
<circle cx="5" cy="95" r="5" fill="white"/>
<circle cx="27" cy="95" r="5" fill="white"/>
<circle cx="49" cy="95" r="5" fill="white"/>
<circle cx="71" cy="95" r="5" fill="white"/>
<circle cx="93" cy="95" r="5" fill="white"/>
<circle cx="115" cy="95" r="5" fill="white"/>
<circle cx="137" cy="95" r="5" fill="white"/>
<circle cx="159" cy="95" r="5" fill="white"/>
<circle cx="181" cy="95" r="5" fill="white"/>
<circle cx="203" cy="95" r="5" fill="white"/>
</svg>
