<svg width="89" height="217" viewBox="0 0 89 217" fill="none" xmlns="http://www.w3.org/2000/svg">
<path d="M32.9978 81.4062L34.4859 82.7424L32.9978 81.4062ZM88.4142 203.414C89.1953 202.633 89.1953 201.367 88.4142 200.586L75.6863 187.858C74.9052 187.077 73.6389 187.077 72.8579 187.858C72.0768 188.639 72.0768 189.905 72.8579 190.686L84.1716 202L72.8579 213.314C72.0768 214.095 72.0768 215.361 72.8579 216.142C73.6389 216.923 74.9052 216.923 75.6863 216.142L88.4142 203.414ZM63.3059 0C55.0568 0 46.7621 4.09362 39.1293 10.5417C31.4725 17.0101 24.2983 25.9978 18.247 36.1713C6.17468 56.4672 -1.6805 81.9217 0.307086 102.295L4.28819 101.907C2.41073 82.6623 9.87768 58.0662 21.6848 38.2161C27.5732 28.3166 34.478 19.7074 41.7107 13.5973C48.9675 7.46673 56.3729 4 63.3059 4V0ZM48.9077 75.0857C48.0081 73.9808 46.8776 73.1152 45.4911 72.6858C44.1012 72.2554 42.6253 72.3164 41.1279 72.7788C38.2253 73.6752 35.0395 76.1387 31.5096 80.07L34.4859 82.7424C37.8791 78.9633 40.4656 77.1697 42.3082 76.6007C43.1833 76.3304 43.8232 76.3567 44.3078 76.5067C44.7956 76.6578 45.2983 76.9879 45.8059 77.6113L48.9077 75.0857ZM31.5096 80.07C24.0318 88.3982 19.2779 100.321 17.41 113.386C15.5394 126.471 16.5394 140.852 20.7232 154.229C29.1092 181.042 50.3968 204 87 204V200C52.5205 200 32.5258 178.566 24.5408 153.035C20.5391 140.24 19.5814 126.461 21.3698 113.952C23.1609 101.424 27.6825 90.3195 34.4859 82.7424L31.5096 80.07ZM0.307086 102.295C0.780041 107.143 2.28986 110.989 4.65305 113.855C7.0223 116.728 10.1424 118.484 13.6022 119.322C20.4405 120.978 28.6421 119.073 35.7502 115.213C42.8802 111.341 49.2771 105.306 52.3678 98.2163C55.5152 90.9962 55.1697 82.7764 48.9077 75.0857L45.8059 77.6113C51.0638 84.0688 51.2887 90.682 48.7011 96.6179C46.0568 102.684 40.4133 108.129 33.8413 111.698C27.2476 115.278 20.0858 116.776 14.5434 115.434C11.8128 114.773 9.48828 113.431 7.73897 111.31C5.98359 109.181 4.70099 106.138 4.28819 101.907L0.307086 102.295Z" fill="#44CF6C"/>
</svg>
