<svg width="1200" height="480" viewBox="0 0 1200 480" fill="none" xmlns="http://www.w3.org/2000/svg">
<rect x="0.125" y="0.125" width="59.75" height="59.75" stroke="url(#paint0_linear_1_463)" stroke-width="0.25"/>
<rect x="60.125" y="0.125" width="59.75" height="59.75" stroke="url(#paint1_linear_1_463)" stroke-width="0.25"/>
<rect x="120.125" y="0.125" width="59.75" height="59.75" stroke="url(#paint2_linear_1_463)" stroke-width="0.25"/>
<rect x="180.125" y="0.125" width="59.75" height="59.75" stroke="url(#paint3_linear_1_463)" stroke-width="0.25"/>
<rect x="240.125" y="0.125" width="59.75" height="59.75" stroke="url(#paint4_linear_1_463)" stroke-width="0.25"/>
<rect x="300.125" y="0.125" width="59.75" height="59.75" stroke="url(#paint5_linear_1_463)" stroke-width="0.25"/>
<rect x="360.125" y="0.125" width="59.75" height="59.75" stroke="url(#paint6_linear_1_463)" stroke-width="0.25"/>
<rect x="420.125" y="0.125" width="59.75" height="59.75" stroke="url(#paint7_linear_1_463)" stroke-width="0.25"/>
<rect x="480.125" y="0.125" width="59.75" height="59.75" stroke="url(#paint8_linear_1_463)" stroke-width="0.25"/>
<rect x="540.125" y="0.125" width="59.75" height="59.75" stroke="url(#paint9_linear_1_463)" stroke-width="0.25"/>
<rect x="600.125" y="0.125" width="59.75" height="59.75" stroke="url(#paint10_linear_1_463)" stroke-width="0.25"/>
<rect x="660.125" y="0.125" width="59.75" height="59.75" stroke="url(#paint11_linear_1_463)" stroke-width="0.25"/>
<rect x="720.125" y="0.125" width="59.75" height="59.75" stroke="url(#paint12_linear_1_463)" stroke-width="0.25"/>
<path d="M780 0.25H840V-0.25H780V0.25ZM840 59.75H780V60.25H840V59.75Z" fill="#F4F4F4" mask="url(#path-14-inside-1_1_463)"/>
<rect x="840.125" y="0.125" width="59.75" height="59.75" stroke="url(#paint13_linear_1_463)" stroke-width="0.25"/>
<rect x="900.125" y="0.125" width="59.75" height="59.75" stroke="url(#paint14_linear_1_463)" stroke-width="0.25"/>
<rect x="960.125" y="0.125" width="59.75" height="59.75" stroke="url(#paint15_linear_1_463)" stroke-width="0.25"/>
<rect x="1020.12" y="0.125" width="59.75" height="59.75" stroke="url(#paint16_linear_1_463)" stroke-width="0.25"/>
<rect x="1080.12" y="0.125" width="59.75" height="59.75" stroke="url(#paint17_linear_1_463)" stroke-width="0.25"/>
<path d="M1140 0.25H1200V-0.25H1140V0.25ZM1200 59.75H1140V60.25H1200V59.75Z" fill="#F4F4F4" mask="url(#path-21-inside-2_1_463)"/>
<rect x="0.125" y="60.125" width="59.75" height="59.75" stroke="url(#paint18_linear_1_463)" stroke-width="0.25"/>
<rect x="60.125" y="60.125" width="59.75" height="59.75" stroke="url(#paint19_linear_1_463)" stroke-width="0.25"/>
<path d="M120 60.25H180V59.75H120V60.25ZM180 119.75H120V120.25H180V119.75Z" fill="#F4F4F4" mask="url(#path-25-inside-3_1_463)"/>
<rect x="180.125" y="60.125" width="59.75" height="59.75" stroke="url(#paint20_linear_1_463)" stroke-width="0.25"/>
<rect x="240.125" y="60.125" width="59.75" height="59.75" stroke="url(#paint21_linear_1_463)" stroke-width="0.25"/>
<rect x="300.125" y="60.125" width="59.75" height="59.75" stroke="url(#paint22_linear_1_463)" stroke-width="0.25"/>
<rect x="360.125" y="60.125" width="59.75" height="59.75" stroke="url(#paint23_linear_1_463)" stroke-width="0.25"/>
<path d="M420 60.25H480V59.75H420V60.25ZM480 119.75H420V120.25H480V119.75Z" fill="#F4F4F4" mask="url(#path-31-inside-4_1_463)"/>
<rect x="480.125" y="60.125" width="59.75" height="59.75" stroke="url(#paint24_linear_1_463)" stroke-width="0.25"/>
<path d="M540 60.25H600V59.75H540V60.25ZM600 119.75H540V120.25H600V119.75Z" fill="#F4F4F4" mask="url(#path-34-inside-5_1_463)"/>
<rect x="600.125" y="60.125" width="59.75" height="59.75" stroke="url(#paint25_linear_1_463)" stroke-width="0.25"/>
<rect x="660.125" y="60.125" width="59.75" height="59.75" stroke="url(#paint26_linear_1_463)" stroke-width="0.25"/>
<rect x="720.125" y="60.125" width="59.75" height="59.75" stroke="url(#paint27_linear_1_463)" stroke-width="0.25"/>
<rect x="780.125" y="60.125" width="59.75" height="59.75" stroke="url(#paint28_linear_1_463)" stroke-width="0.25"/>
<rect x="840.125" y="60.125" width="59.75" height="59.75" stroke="url(#paint29_linear_1_463)" stroke-width="0.25"/>
<rect x="900.125" y="60.125" width="59.75" height="59.75" stroke="url(#paint30_linear_1_463)" stroke-width="0.25"/>
<rect x="960.125" y="60.125" width="59.75" height="59.75" stroke="url(#paint31_linear_1_463)" stroke-width="0.25"/>
<rect x="1020.12" y="60.125" width="59.75" height="59.75" stroke="url(#paint32_linear_1_463)" stroke-width="0.25"/>
<rect x="1080.12" y="60.125" width="59.75" height="59.75" stroke="url(#paint33_linear_1_463)" stroke-width="0.25"/>
<rect x="1140.12" y="60.125" width="59.75" height="59.75" stroke="url(#paint34_linear_1_463)" stroke-width="0.25"/>
<rect x="0.125" y="120.125" width="59.75" height="59.75" stroke="url(#paint35_linear_1_463)" stroke-width="0.25"/>
<path d="M60 120.25H120V119.75H60V120.25ZM120 179.75H60V180.25H120V179.75Z" fill="#F4F4F4" mask="url(#path-47-inside-6_1_463)"/>
<rect x="120.125" y="120.125" width="59.75" height="59.75" stroke="url(#paint36_linear_1_463)" stroke-width="0.25"/>
<rect x="180.125" y="120.125" width="59.75" height="59.75" stroke="url(#paint37_linear_1_463)" stroke-width="0.25"/>
<path d="M240 120.25H300V119.75H240V120.25ZM300 179.75H240V180.25H300V179.75Z" fill="#F4F4F4" mask="url(#path-51-inside-7_1_463)"/>
<rect x="300.125" y="120.125" width="59.75" height="59.75" stroke="url(#paint38_linear_1_463)" stroke-width="0.25"/>
<rect x="360.125" y="120.125" width="59.75" height="59.75" stroke="url(#paint39_linear_1_463)" stroke-width="0.25"/>
<rect x="420.125" y="120.125" width="59.75" height="59.75" stroke="url(#paint40_linear_1_463)" stroke-width="0.25"/>
<rect x="480.125" y="120.125" width="59.75" height="59.75" stroke="url(#paint41_linear_1_463)" stroke-width="0.25"/>
<rect x="540.125" y="120.125" width="59.75" height="59.75" stroke="url(#paint42_linear_1_463)" stroke-width="0.25"/>
<rect x="600.125" y="120.125" width="59.75" height="59.75" stroke="url(#paint43_linear_1_463)" stroke-width="0.25"/>
<path d="M660 120.25H720V119.75H660V120.25ZM720 179.75H660V180.25H720V179.75Z" fill="#F4F4F4" mask="url(#path-59-inside-8_1_463)"/>
<rect x="720.125" y="120.125" width="59.75" height="59.75" stroke="url(#paint44_linear_1_463)" stroke-width="0.25"/>
<path d="M780 120.25H840V119.75H780V120.25ZM840 179.75H780V180.25H840V179.75Z" fill="#F4F4F4" mask="url(#path-62-inside-9_1_463)"/>
<rect x="840.125" y="120.125" width="59.75" height="59.75" stroke="url(#paint45_linear_1_463)" stroke-width="0.25"/>
<rect x="900.125" y="120.125" width="59.75" height="59.75" stroke="url(#paint46_linear_1_463)" stroke-width="0.25"/>
<rect x="960.125" y="120.125" width="59.75" height="59.75" stroke="url(#paint47_linear_1_463)" stroke-width="0.25"/>
<path d="M1020 120.25H1080V119.75H1020V120.25ZM1080 179.75H1020V180.25H1080V179.75Z" fill="#F4F4F4" mask="url(#path-67-inside-10_1_463)"/>
<rect x="1080.12" y="120.125" width="59.75" height="59.75" stroke="url(#paint48_linear_1_463)" stroke-width="0.25"/>
<path d="M1140 120.25H1200V119.75H1140V120.25ZM1200 179.75H1140V180.25H1200V179.75Z" fill="#F4F4F4" mask="url(#path-70-inside-11_1_463)"/>
<rect x="0.125" y="180.125" width="59.75" height="59.75" stroke="url(#paint49_linear_1_463)" stroke-width="0.25"/>
<rect x="60.125" y="180.125" width="59.75" height="59.75" stroke="url(#paint50_linear_1_463)" stroke-width="0.25"/>
<path d="M120 180.25H180V179.75H120V180.25ZM180 239.75H120V240.25H180V239.75Z" fill="#F4F4F4" mask="url(#path-74-inside-12_1_463)"/>
<rect x="180.125" y="180.125" width="59.75" height="59.75" stroke="url(#paint51_linear_1_463)" stroke-width="0.25"/>
<rect x="240.125" y="180.125" width="59.75" height="59.75" stroke="url(#paint52_linear_1_463)" stroke-width="0.25"/>
<rect x="300.125" y="180.125" width="59.75" height="59.75" stroke="url(#paint53_linear_1_463)" stroke-width="0.25"/>
<rect x="360.125" y="180.125" width="59.75" height="59.75" stroke="url(#paint54_linear_1_463)" stroke-width="0.25"/>
<path d="M420 180.25H480V179.75H420V180.25ZM480 239.75H420V240.25H480V239.75Z" fill="#F4F4F4" mask="url(#path-80-inside-13_1_463)"/>
<rect x="480.125" y="180.125" width="59.75" height="59.75" stroke="url(#paint55_linear_1_463)" stroke-width="0.25"/>
<path d="M540 180.25H600V179.75H540V180.25ZM600 239.75H540V240.25H600V239.75Z" fill="#F4F4F4" mask="url(#path-83-inside-14_1_463)"/>
<rect x="600.125" y="180.125" width="59.75" height="59.75" stroke="url(#paint56_linear_1_463)" stroke-width="0.25"/>
<rect x="660.125" y="180.125" width="59.75" height="59.75" stroke="url(#paint57_linear_1_463)" stroke-width="0.25"/>
<rect x="720.125" y="180.125" width="59.75" height="59.75" stroke="url(#paint58_linear_1_463)" stroke-width="0.25"/>
<rect x="780.125" y="180.125" width="59.75" height="59.75" stroke="url(#paint59_linear_1_463)" stroke-width="0.25"/>
<rect x="840.125" y="180.125" width="59.75" height="59.75" stroke="url(#paint60_linear_1_463)" stroke-width="0.25"/>
<rect x="900.125" y="180.125" width="59.75" height="59.75" stroke="url(#paint61_linear_1_463)" stroke-width="0.25"/>
<rect x="960.125" y="180.125" width="59.75" height="59.75" stroke="url(#paint62_linear_1_463)" stroke-width="0.25"/>
<rect x="1020.12" y="180.125" width="59.75" height="59.75" stroke="url(#paint63_linear_1_463)" stroke-width="0.25"/>
<rect x="1080.12" y="180.125" width="59.75" height="59.75" stroke="url(#paint64_linear_1_463)" stroke-width="0.25"/>
<rect x="1140.12" y="180.125" width="59.75" height="59.75" stroke="url(#paint65_linear_1_463)" stroke-width="0.25"/>
<rect x="0.125" y="240.125" width="59.75" height="59.75" stroke="url(#paint66_linear_1_463)" stroke-width="0.25"/>
<path d="M60 240.25H120V239.75H60V240.25ZM120 299.75H60V300.25H120V299.75Z" fill="#F4F4F4" mask="url(#path-96-inside-15_1_463)"/>
<rect x="120.125" y="240.125" width="59.75" height="59.75" stroke="url(#paint67_linear_1_463)" stroke-width="0.25"/>
<rect x="180.125" y="240.125" width="59.75" height="59.75" stroke="url(#paint68_linear_1_463)" stroke-width="0.25"/>
<path d="M240 240.25H300V239.75H240V240.25ZM300 299.75H240V300.25H300V299.75Z" fill="#F4F4F4" mask="url(#path-100-inside-16_1_463)"/>
<rect x="300.125" y="240.125" width="59.75" height="59.75" stroke="url(#paint69_linear_1_463)" stroke-width="0.25"/>
<rect x="360.125" y="240.125" width="59.75" height="59.75" stroke="url(#paint70_linear_1_463)" stroke-width="0.25"/>
<rect x="420.125" y="240.125" width="59.75" height="59.75" stroke="url(#paint71_linear_1_463)" stroke-width="0.25"/>
<rect x="480.125" y="240.125" width="59.75" height="59.75" stroke="url(#paint72_linear_1_463)" stroke-width="0.25"/>
<rect x="540.125" y="240.125" width="59.75" height="59.75" stroke="url(#paint73_linear_1_463)" stroke-width="0.25"/>
<rect x="600.125" y="240.125" width="59.75" height="59.75" stroke="url(#paint74_linear_1_463)" stroke-width="0.25"/>
<path d="M660 240.25H720V239.75H660V240.25ZM720 299.75H660V300.25H720V299.75Z" fill="#F4F4F4" mask="url(#path-108-inside-17_1_463)"/>
<rect x="720.125" y="240.125" width="59.75" height="59.75" stroke="url(#paint75_linear_1_463)" stroke-width="0.25"/>
<path d="M780 240.25H840V239.75H780V240.25ZM840 299.75H780V300.25H840V299.75Z" fill="#F4F4F4" mask="url(#path-111-inside-18_1_463)"/>
<rect x="840.125" y="240.125" width="59.75" height="59.75" stroke="url(#paint76_linear_1_463)" stroke-width="0.25"/>
<rect x="900.125" y="240.125" width="59.75" height="59.75" stroke="url(#paint77_linear_1_463)" stroke-width="0.25"/>
<rect x="960.125" y="240.125" width="59.75" height="59.75" stroke="url(#paint78_linear_1_463)" stroke-width="0.25"/>
<path d="M1020 240.25H1080V239.75H1020V240.25ZM1080 299.75H1020V300.25H1080V299.75Z" fill="#F4F4F4" mask="url(#path-116-inside-19_1_463)"/>
<rect x="1080.12" y="240.125" width="59.75" height="59.75" stroke="url(#paint79_linear_1_463)" stroke-width="0.25"/>
<path d="M1140 240.25H1200V239.75H1140V240.25ZM1200 299.75H1140V300.25H1200V299.75Z" fill="#F4F4F4" mask="url(#path-119-inside-20_1_463)"/>
<rect x="0.125" y="300.125" width="59.75" height="59.75" stroke="url(#paint80_linear_1_463)" stroke-width="0.25"/>
<rect x="60.125" y="300.125" width="59.75" height="59.75" stroke="url(#paint81_linear_1_463)" stroke-width="0.25"/>
<path d="M120 300.25H180V299.75H120V300.25ZM180 359.75H120V360.25H180V359.75Z" fill="#F4F4F4" mask="url(#path-123-inside-21_1_463)"/>
<rect x="180.125" y="300.125" width="59.75" height="59.75" stroke="url(#paint82_linear_1_463)" stroke-width="0.25"/>
<rect x="240.125" y="300.125" width="59.75" height="59.75" stroke="url(#paint83_linear_1_463)" stroke-width="0.25"/>
<rect x="300.125" y="300.125" width="59.75" height="59.75" stroke="url(#paint84_linear_1_463)" stroke-width="0.25"/>
<rect x="360.125" y="300.125" width="59.75" height="59.75" stroke="url(#paint85_linear_1_463)" stroke-width="0.25"/>
<path d="M420 300.25H480V299.75H420V300.25ZM480 359.75H420V360.25H480V359.75Z" fill="#F4F4F4" mask="url(#path-129-inside-22_1_463)"/>
<rect x="480.125" y="300.125" width="59.75" height="59.75" stroke="url(#paint86_linear_1_463)" stroke-width="0.25"/>
<path d="M540 300.25H600V299.75H540V300.25ZM600 359.75H540V360.25H600V359.75Z" fill="#F4F4F4" mask="url(#path-132-inside-23_1_463)"/>
<rect x="600.125" y="300.125" width="59.75" height="59.75" stroke="url(#paint87_linear_1_463)" stroke-width="0.25"/>
<rect x="660.125" y="300.125" width="59.75" height="59.75" stroke="url(#paint88_linear_1_463)" stroke-width="0.25"/>
<rect x="720.125" y="300.125" width="59.75" height="59.75" stroke="url(#paint89_linear_1_463)" stroke-width="0.25"/>
<rect x="780.125" y="300.125" width="59.75" height="59.75" stroke="url(#paint90_linear_1_463)" stroke-width="0.25"/>
<rect x="840.125" y="300.125" width="59.75" height="59.75" stroke="url(#paint91_linear_1_463)" stroke-width="0.25"/>
<rect x="900.125" y="300.125" width="59.75" height="59.75" stroke="url(#paint92_linear_1_463)" stroke-width="0.25"/>
<rect x="960.125" y="300.125" width="59.75" height="59.75" stroke="url(#paint93_linear_1_463)" stroke-width="0.25"/>
<rect x="1020.12" y="300.125" width="59.75" height="59.75" stroke="url(#paint94_linear_1_463)" stroke-width="0.25"/>
<rect x="1080.12" y="300.125" width="59.75" height="59.75" stroke="url(#paint95_linear_1_463)" stroke-width="0.25"/>
<rect x="1140.12" y="300.125" width="59.75" height="59.75" stroke="url(#paint96_linear_1_463)" stroke-width="0.25"/>
<rect x="0.125" y="360.125" width="59.75" height="59.75" stroke="url(#paint97_linear_1_463)" stroke-width="0.25"/>
<path d="M60 360.25H120V359.75H60V360.25ZM120 419.75H60V420.25H120V419.75Z" fill="#F4F4F4" mask="url(#path-145-inside-24_1_463)"/>
<rect x="120.125" y="360.125" width="59.75" height="59.75" stroke="url(#paint98_linear_1_463)" stroke-width="0.25"/>
<rect x="180.125" y="360.125" width="59.75" height="59.75" stroke="url(#paint99_linear_1_463)" stroke-width="0.25"/>
<path d="M240 360.25H300V359.75H240V360.25ZM300 419.75H240V420.25H300V419.75Z" fill="#F4F4F4" mask="url(#path-149-inside-25_1_463)"/>
<rect x="300.125" y="360.125" width="59.75" height="59.75" stroke="url(#paint100_linear_1_463)" stroke-width="0.25"/>
<rect x="360.125" y="360.125" width="59.75" height="59.75" stroke="url(#paint101_linear_1_463)" stroke-width="0.25"/>
<rect x="420.125" y="360.125" width="59.75" height="59.75" stroke="url(#paint102_linear_1_463)" stroke-width="0.25"/>
<rect x="480.125" y="360.125" width="59.75" height="59.75" stroke="url(#paint103_linear_1_463)" stroke-width="0.25"/>
<rect x="540.125" y="360.125" width="59.75" height="59.75" stroke="url(#paint104_linear_1_463)" stroke-width="0.25"/>
<rect x="600.125" y="360.125" width="59.75" height="59.75" stroke="url(#paint105_linear_1_463)" stroke-width="0.25"/>
<path d="M660 360.25H720V359.75H660V360.25ZM720 419.75H660V420.25H720V419.75Z" fill="#F4F4F4" mask="url(#path-157-inside-26_1_463)"/>
<rect x="720.125" y="360.125" width="59.75" height="59.75" stroke="url(#paint106_linear_1_463)" stroke-width="0.25"/>
<path d="M780 360.25H840V359.75H780V360.25ZM840 419.75H780V420.25H840V419.75Z" fill="#F4F4F4" mask="url(#path-160-inside-27_1_463)"/>
<rect x="840.125" y="360.125" width="59.75" height="59.75" stroke="url(#paint107_linear_1_463)" stroke-width="0.25"/>
<rect x="900.125" y="360.125" width="59.75" height="59.75" stroke="url(#paint108_linear_1_463)" stroke-width="0.25"/>
<rect x="960.125" y="360.125" width="59.75" height="59.75" stroke="url(#paint109_linear_1_463)" stroke-width="0.25"/>
<path d="M1020 360.25H1080V359.75H1020V360.25ZM1080 419.75H1020V420.25H1080V419.75Z" fill="#F4F4F4" mask="url(#path-165-inside-28_1_463)"/>
<rect x="1080.12" y="360.125" width="59.75" height="59.75" stroke="url(#paint110_linear_1_463)" stroke-width="0.25"/>
<path d="M1140 360.25H1200V359.75H1140V360.25ZM1200 419.75H1140V420.25H1200V419.75Z" fill="#F4F4F4" mask="url(#path-168-inside-29_1_463)"/>
<rect x="0.125" y="420.125" width="59.75" height="59.75" stroke="url(#paint111_linear_1_463)" stroke-width="0.25"/>
<rect x="60.125" y="420.125" width="59.75" height="59.75" stroke="url(#paint112_linear_1_463)" stroke-width="0.25"/>
<path d="M120 420.25H180V419.75H120V420.25ZM180 479.75H120V480.25H180V479.75Z" fill="#F4F4F4" mask="url(#path-172-inside-30_1_463)"/>
<rect x="180.125" y="420.125" width="59.75" height="59.75" stroke="url(#paint113_linear_1_463)" stroke-width="0.25"/>
<rect x="240.125" y="420.125" width="59.75" height="59.75" stroke="url(#paint114_linear_1_463)" stroke-width="0.25"/>
<rect x="300.125" y="420.125" width="59.75" height="59.75" stroke="url(#paint115_linear_1_463)" stroke-width="0.25"/>
<rect x="360.125" y="420.125" width="59.75" height="59.75" stroke="url(#paint116_linear_1_463)" stroke-width="0.25"/>
<path d="M420 420.25H480V419.75H420V420.25ZM480 479.75H420V480.25H480V479.75Z" fill="#F4F4F4" mask="url(#path-178-inside-31_1_463)"/>
<rect x="480.125" y="420.125" width="59.75" height="59.75" stroke="url(#paint117_linear_1_463)" stroke-width="0.25"/>
<path d="M540 420.25H600V419.75H540V420.25ZM600 479.75H540V480.25H600V479.75Z" fill="#F4F4F4" mask="url(#path-181-inside-32_1_463)"/>
<rect x="600.125" y="420.125" width="59.75" height="59.75" stroke="url(#paint118_linear_1_463)" stroke-width="0.25"/>
<rect x="660.125" y="420.125" width="59.75" height="59.75" stroke="url(#paint119_linear_1_463)" stroke-width="0.25"/>
<rect x="720.125" y="420.125" width="59.75" height="59.75" stroke="url(#paint120_linear_1_463)" stroke-width="0.25"/>
<rect x="780.125" y="420.125" width="59.75" height="59.75" stroke="url(#paint121_linear_1_463)" stroke-width="0.25"/>
<rect x="840.125" y="420.125" width="59.75" height="59.75" stroke="url(#paint122_linear_1_463)" stroke-width="0.25"/>
<rect x="900.125" y="420.125" width="59.75" height="59.75" stroke="url(#paint123_linear_1_463)" stroke-width="0.25"/>
<rect x="960.125" y="420.125" width="59.75" height="59.75" stroke="url(#paint124_linear_1_463)" stroke-width="0.25"/>
<rect x="1020.12" y="420.125" width="59.75" height="59.75" stroke="url(#paint125_linear_1_463)" stroke-width="0.25"/>
<rect x="1080.12" y="420.125" width="59.75" height="59.75" stroke="url(#paint126_linear_1_463)" stroke-width="0.25"/>
<rect x="1140.12" y="420.125" width="59.75" height="59.75" stroke="url(#paint127_linear_1_463)" stroke-width="0.25"/>
<defs>
<linearGradient id="paint0_linear_1_463" x1="60" y1="-1.78814e-06" x2="1.78814e-06" y2="60" gradientUnits="userSpaceOnUse">
<stop stop-color="#F4F4F4"/>
<stop offset="1" stop-color="#F4F4F4" stop-opacity="0"/>
</linearGradient>
<linearGradient id="paint1_linear_1_463" x1="60" y1="60" x2="120" y2="-1.39698e-07" gradientUnits="userSpaceOnUse">
<stop stop-color="#F4F4F4"/>
<stop offset="1" stop-color="#F4F4F4" stop-opacity="0"/>
</linearGradient>
<linearGradient id="paint2_linear_1_463" x1="120" y1="0" x2="169.333" y2="63.3333" gradientUnits="userSpaceOnUse">
<stop stop-color="#F4F4F4"/>
<stop offset="1" stop-color="#F4F4F4" stop-opacity="0"/>
</linearGradient>
<linearGradient id="paint3_linear_1_463" x1="180" y1="0" x2="229.333" y2="63.3333" gradientUnits="userSpaceOnUse">
<stop stop-color="#F4F4F4"/>
<stop offset="1" stop-color="#F4F4F4" stop-opacity="0"/>
</linearGradient>
<linearGradient id="paint4_linear_1_463" x1="240" y1="60" x2="300" y2="-1.39698e-07" gradientUnits="userSpaceOnUse">
<stop stop-color="#F4F4F4"/>
<stop offset="1" stop-color="#F4F4F4" stop-opacity="0"/>
</linearGradient>
<linearGradient id="paint5_linear_1_463" x1="300" y1="0" x2="349.333" y2="63.3333" gradientUnits="userSpaceOnUse">
<stop stop-color="#F4F4F4"/>
<stop offset="1" stop-color="#F4F4F4" stop-opacity="0"/>
</linearGradient>
<linearGradient id="paint6_linear_1_463" x1="420" y1="-1.78814e-06" x2="360" y2="60" gradientUnits="userSpaceOnUse">
<stop stop-color="#F4F4F4"/>
<stop offset="1" stop-color="#F4F4F4" stop-opacity="0"/>
</linearGradient>
<linearGradient id="paint7_linear_1_463" x1="420" y1="60" x2="480" y2="-1.39698e-07" gradientUnits="userSpaceOnUse">
<stop stop-color="#F4F4F4"/>
<stop offset="1" stop-color="#F4F4F4" stop-opacity="0"/>
</linearGradient>
<linearGradient id="paint8_linear_1_463" x1="540" y1="0" x2="480" y2="60" gradientUnits="userSpaceOnUse">
<stop stop-color="#F4F4F4"/>
<stop offset="1" stop-color="#F4F4F4" stop-opacity="0"/>
</linearGradient>
<linearGradient id="paint9_linear_1_463" x1="600" y1="-1.78814e-06" x2="540" y2="60" gradientUnits="userSpaceOnUse">
<stop stop-color="#F4F4F4"/>
<stop offset="1" stop-color="#F4F4F4" stop-opacity="0"/>
</linearGradient>
<linearGradient id="paint10_linear_1_463" x1="600" y1="60" x2="660" y2="-1.39698e-07" gradientUnits="userSpaceOnUse">
<stop stop-color="#F4F4F4"/>
<stop offset="1" stop-color="#F4F4F4" stop-opacity="0"/>
</linearGradient>
<linearGradient id="paint11_linear_1_463" x1="660" y1="60" x2="720" y2="-1.39698e-07" gradientUnits="userSpaceOnUse">
<stop stop-color="#F4F4F4"/>
<stop offset="1" stop-color="#F4F4F4" stop-opacity="0"/>
</linearGradient>
<linearGradient id="paint12_linear_1_463" x1="780" y1="-1.78814e-06" x2="720" y2="60" gradientUnits="userSpaceOnUse">
<stop stop-color="#F4F4F4"/>
<stop offset="1" stop-color="#F4F4F4" stop-opacity="0"/>
</linearGradient>
<linearGradient id="paint13_linear_1_463" x1="840" y1="60" x2="900" y2="-1.39698e-07" gradientUnits="userSpaceOnUse">
<stop stop-color="#F4F4F4"/>
<stop offset="1" stop-color="#F4F4F4" stop-opacity="0"/>
</linearGradient>
<linearGradient id="paint14_linear_1_463" x1="960" y1="0" x2="900" y2="60" gradientUnits="userSpaceOnUse">
<stop stop-color="#F4F4F4"/>
<stop offset="1" stop-color="#F4F4F4" stop-opacity="0"/>
</linearGradient>
<linearGradient id="paint15_linear_1_463" x1="960" y1="0" x2="1009.33" y2="63.3333" gradientUnits="userSpaceOnUse">
<stop stop-color="#F4F4F4"/>
<stop offset="1" stop-color="#F4F4F4" stop-opacity="0"/>
</linearGradient>
<linearGradient id="paint16_linear_1_463" x1="1020" y1="60" x2="1080" y2="-1.39698e-07" gradientUnits="userSpaceOnUse">
<stop stop-color="#F4F4F4"/>
<stop offset="1" stop-color="#F4F4F4" stop-opacity="0"/>
</linearGradient>
<linearGradient id="paint17_linear_1_463" x1="1140" y1="-1.78814e-06" x2="1080" y2="60" gradientUnits="userSpaceOnUse">
<stop stop-color="#F4F4F4"/>
<stop offset="1" stop-color="#F4F4F4" stop-opacity="0"/>
</linearGradient>
<linearGradient id="paint18_linear_1_463" x1="60" y1="60" x2="0" y2="120" gradientUnits="userSpaceOnUse">
<stop stop-color="#F4F4F4"/>
<stop offset="1" stop-color="#F4F4F4" stop-opacity="0"/>
</linearGradient>
<linearGradient id="paint19_linear_1_463" x1="60" y1="60" x2="109.333" y2="123.333" gradientUnits="userSpaceOnUse">
<stop stop-color="#F4F4F4"/>
<stop offset="1" stop-color="#F4F4F4" stop-opacity="0"/>
</linearGradient>
<linearGradient id="paint20_linear_1_463" x1="180" y1="60" x2="229.333" y2="123.333" gradientUnits="userSpaceOnUse">
<stop stop-color="#F4F4F4"/>
<stop offset="1" stop-color="#F4F4F4" stop-opacity="0"/>
</linearGradient>
<linearGradient id="paint21_linear_1_463" x1="240" y1="120" x2="300" y2="60" gradientUnits="userSpaceOnUse">
<stop stop-color="#F4F4F4"/>
<stop offset="1" stop-color="#F4F4F4" stop-opacity="0"/>
</linearGradient>
<linearGradient id="paint22_linear_1_463" x1="360" y1="60" x2="300" y2="120" gradientUnits="userSpaceOnUse">
<stop stop-color="#F4F4F4"/>
<stop offset="1" stop-color="#F4F4F4" stop-opacity="0"/>
</linearGradient>
<linearGradient id="paint23_linear_1_463" x1="420" y1="60" x2="360" y2="120" gradientUnits="userSpaceOnUse">
<stop stop-color="#F4F4F4"/>
<stop offset="1" stop-color="#F4F4F4" stop-opacity="0"/>
</linearGradient>
<linearGradient id="paint24_linear_1_463" x1="540" y1="60" x2="480" y2="120" gradientUnits="userSpaceOnUse">
<stop stop-color="#F4F4F4"/>
<stop offset="1" stop-color="#F4F4F4" stop-opacity="0"/>
</linearGradient>
<linearGradient id="paint25_linear_1_463" x1="600" y1="60" x2="649.333" y2="123.333" gradientUnits="userSpaceOnUse">
<stop stop-color="#F4F4F4"/>
<stop offset="1" stop-color="#F4F4F4" stop-opacity="0"/>
</linearGradient>
<linearGradient id="paint26_linear_1_463" x1="660" y1="120" x2="720" y2="60" gradientUnits="userSpaceOnUse">
<stop stop-color="#F4F4F4"/>
<stop offset="1" stop-color="#F4F4F4" stop-opacity="0"/>
</linearGradient>
<linearGradient id="paint27_linear_1_463" x1="720" y1="60" x2="769.333" y2="123.333" gradientUnits="userSpaceOnUse">
<stop stop-color="#F4F4F4"/>
<stop offset="1" stop-color="#F4F4F4" stop-opacity="0"/>
</linearGradient>
<linearGradient id="paint28_linear_1_463" x1="780" y1="120" x2="840" y2="60" gradientUnits="userSpaceOnUse">
<stop stop-color="#F4F4F4"/>
<stop offset="1" stop-color="#F4F4F4" stop-opacity="0"/>
</linearGradient>
<linearGradient id="paint29_linear_1_463" x1="900" y1="60" x2="840" y2="120" gradientUnits="userSpaceOnUse">
<stop stop-color="#F4F4F4"/>
<stop offset="1" stop-color="#F4F4F4" stop-opacity="0"/>
</linearGradient>
<linearGradient id="paint30_linear_1_463" x1="900" y1="120" x2="960" y2="60" gradientUnits="userSpaceOnUse">
<stop stop-color="#F4F4F4"/>
<stop offset="1" stop-color="#F4F4F4" stop-opacity="0"/>
</linearGradient>
<linearGradient id="paint31_linear_1_463" x1="1020" y1="60" x2="960" y2="120" gradientUnits="userSpaceOnUse">
<stop stop-color="#F4F4F4"/>
<stop offset="1" stop-color="#F4F4F4" stop-opacity="0"/>
</linearGradient>
<linearGradient id="paint32_linear_1_463" x1="1020" y1="60" x2="1069.33" y2="123.333" gradientUnits="userSpaceOnUse">
<stop stop-color="#F4F4F4"/>
<stop offset="1" stop-color="#F4F4F4" stop-opacity="0"/>
</linearGradient>
<linearGradient id="paint33_linear_1_463" x1="1140" y1="60" x2="1080" y2="120" gradientUnits="userSpaceOnUse">
<stop stop-color="#F4F4F4"/>
<stop offset="1" stop-color="#F4F4F4" stop-opacity="0"/>
</linearGradient>
<linearGradient id="paint34_linear_1_463" x1="1140" y1="60" x2="1189.33" y2="123.333" gradientUnits="userSpaceOnUse">
<stop stop-color="#F4F4F4"/>
<stop offset="1" stop-color="#F4F4F4" stop-opacity="0"/>
</linearGradient>
<linearGradient id="paint35_linear_1_463" x1="60" y1="120" x2="1.78814e-06" y2="180" gradientUnits="userSpaceOnUse">
<stop stop-color="#F4F4F4"/>
<stop offset="1" stop-color="#F4F4F4" stop-opacity="0"/>
</linearGradient>
<linearGradient id="paint36_linear_1_463" x1="120" y1="120" x2="169.333" y2="183.333" gradientUnits="userSpaceOnUse">
<stop stop-color="#F4F4F4"/>
<stop offset="1" stop-color="#F4F4F4" stop-opacity="0"/>
</linearGradient>
<linearGradient id="paint37_linear_1_463" x1="180" y1="120" x2="229.333" y2="183.333" gradientUnits="userSpaceOnUse">
<stop stop-color="#F4F4F4"/>
<stop offset="1" stop-color="#F4F4F4" stop-opacity="0"/>
</linearGradient>
<linearGradient id="paint38_linear_1_463" x1="300" y1="120" x2="349.333" y2="183.333" gradientUnits="userSpaceOnUse">
<stop stop-color="#F4F4F4"/>
<stop offset="1" stop-color="#F4F4F4" stop-opacity="0"/>
</linearGradient>
<linearGradient id="paint39_linear_1_463" x1="420" y1="120" x2="360" y2="180" gradientUnits="userSpaceOnUse">
<stop stop-color="#F4F4F4"/>
<stop offset="1" stop-color="#F4F4F4" stop-opacity="0"/>
</linearGradient>
<linearGradient id="paint40_linear_1_463" x1="420" y1="120" x2="469.333" y2="183.333" gradientUnits="userSpaceOnUse">
<stop stop-color="#F4F4F4"/>
<stop offset="1" stop-color="#F4F4F4" stop-opacity="0"/>
</linearGradient>
<linearGradient id="paint41_linear_1_463" x1="540" y1="120" x2="480" y2="180" gradientUnits="userSpaceOnUse">
<stop stop-color="#F4F4F4"/>
<stop offset="1" stop-color="#F4F4F4" stop-opacity="0"/>
</linearGradient>
<linearGradient id="paint42_linear_1_463" x1="600" y1="120" x2="540" y2="180" gradientUnits="userSpaceOnUse">
<stop stop-color="#F4F4F4"/>
<stop offset="1" stop-color="#F4F4F4" stop-opacity="0"/>
</linearGradient>
<linearGradient id="paint43_linear_1_463" x1="660" y1="120" x2="600" y2="180" gradientUnits="userSpaceOnUse">
<stop stop-color="#F4F4F4"/>
<stop offset="1" stop-color="#F4F4F4" stop-opacity="0"/>
</linearGradient>
<linearGradient id="paint44_linear_1_463" x1="780" y1="120" x2="720" y2="180" gradientUnits="userSpaceOnUse">
<stop stop-color="#F4F4F4"/>
<stop offset="1" stop-color="#F4F4F4" stop-opacity="0"/>
</linearGradient>
<linearGradient id="paint45_linear_1_463" x1="900" y1="120" x2="840" y2="180" gradientUnits="userSpaceOnUse">
<stop stop-color="#F4F4F4"/>
<stop offset="1" stop-color="#F4F4F4" stop-opacity="0"/>
</linearGradient>
<linearGradient id="paint46_linear_1_463" x1="960" y1="120" x2="900" y2="180" gradientUnits="userSpaceOnUse">
<stop stop-color="#F4F4F4"/>
<stop offset="1" stop-color="#F4F4F4" stop-opacity="0"/>
</linearGradient>
<linearGradient id="paint47_linear_1_463" x1="960" y1="120" x2="1009.33" y2="183.333" gradientUnits="userSpaceOnUse">
<stop stop-color="#F4F4F4"/>
<stop offset="1" stop-color="#F4F4F4" stop-opacity="0"/>
</linearGradient>
<linearGradient id="paint48_linear_1_463" x1="1140" y1="120" x2="1080" y2="180" gradientUnits="userSpaceOnUse">
<stop stop-color="#F4F4F4"/>
<stop offset="1" stop-color="#F4F4F4" stop-opacity="0"/>
</linearGradient>
<linearGradient id="paint49_linear_1_463" x1="60" y1="180" x2="0" y2="240" gradientUnits="userSpaceOnUse">
<stop stop-color="#F4F4F4"/>
<stop offset="1" stop-color="#F4F4F4" stop-opacity="0"/>
</linearGradient>
<linearGradient id="paint50_linear_1_463" x1="60" y1="180" x2="109.333" y2="243.333" gradientUnits="userSpaceOnUse">
<stop stop-color="#F4F4F4"/>
<stop offset="1" stop-color="#F4F4F4" stop-opacity="0"/>
</linearGradient>
<linearGradient id="paint51_linear_1_463" x1="180" y1="180" x2="229.333" y2="243.333" gradientUnits="userSpaceOnUse">
<stop stop-color="#F4F4F4"/>
<stop offset="1" stop-color="#F4F4F4" stop-opacity="0"/>
</linearGradient>
<linearGradient id="paint52_linear_1_463" x1="240" y1="240" x2="300" y2="180" gradientUnits="userSpaceOnUse">
<stop stop-color="#F4F4F4"/>
<stop offset="1" stop-color="#F4F4F4" stop-opacity="0"/>
</linearGradient>
<linearGradient id="paint53_linear_1_463" x1="360" y1="180" x2="300" y2="240" gradientUnits="userSpaceOnUse">
<stop stop-color="#F4F4F4"/>
<stop offset="1" stop-color="#F4F4F4" stop-opacity="0"/>
</linearGradient>
<linearGradient id="paint54_linear_1_463" x1="420" y1="180" x2="360" y2="240" gradientUnits="userSpaceOnUse">
<stop stop-color="#F4F4F4"/>
<stop offset="1" stop-color="#F4F4F4" stop-opacity="0"/>
</linearGradient>
<linearGradient id="paint55_linear_1_463" x1="540" y1="180" x2="480" y2="240" gradientUnits="userSpaceOnUse">
<stop stop-color="#F4F4F4"/>
<stop offset="1" stop-color="#F4F4F4" stop-opacity="0"/>
</linearGradient>
<linearGradient id="paint56_linear_1_463" x1="600" y1="180" x2="649.333" y2="243.333" gradientUnits="userSpaceOnUse">
<stop stop-color="#F4F4F4"/>
<stop offset="1" stop-color="#F4F4F4" stop-opacity="0"/>
</linearGradient>
<linearGradient id="paint57_linear_1_463" x1="660" y1="240" x2="720" y2="180" gradientUnits="userSpaceOnUse">
<stop stop-color="#F4F4F4"/>
<stop offset="1" stop-color="#F4F4F4" stop-opacity="0"/>
</linearGradient>
<linearGradient id="paint58_linear_1_463" x1="720" y1="180" x2="769.333" y2="243.333" gradientUnits="userSpaceOnUse">
<stop stop-color="#F4F4F4"/>
<stop offset="1" stop-color="#F4F4F4" stop-opacity="0"/>
</linearGradient>
<linearGradient id="paint59_linear_1_463" x1="780" y1="240" x2="840" y2="180" gradientUnits="userSpaceOnUse">
<stop stop-color="#F4F4F4"/>
<stop offset="1" stop-color="#F4F4F4" stop-opacity="0"/>
</linearGradient>
<linearGradient id="paint60_linear_1_463" x1="900" y1="180" x2="840" y2="240" gradientUnits="userSpaceOnUse">
<stop stop-color="#F4F4F4"/>
<stop offset="1" stop-color="#F4F4F4" stop-opacity="0"/>
</linearGradient>
<linearGradient id="paint61_linear_1_463" x1="900" y1="240" x2="960" y2="180" gradientUnits="userSpaceOnUse">
<stop stop-color="#F4F4F4"/>
<stop offset="1" stop-color="#F4F4F4" stop-opacity="0"/>
</linearGradient>
<linearGradient id="paint62_linear_1_463" x1="1020" y1="180" x2="960" y2="240" gradientUnits="userSpaceOnUse">
<stop stop-color="#F4F4F4"/>
<stop offset="1" stop-color="#F4F4F4" stop-opacity="0"/>
</linearGradient>
<linearGradient id="paint63_linear_1_463" x1="1050" y1="240" x2="1020" y2="197" gradientUnits="userSpaceOnUse">
<stop stop-color="#F4F4F4"/>
<stop offset="1" stop-color="#F4F4F4" stop-opacity="0"/>
</linearGradient>
<linearGradient id="paint64_linear_1_463" x1="1140" y1="180" x2="1080" y2="240" gradientUnits="userSpaceOnUse">
<stop stop-color="#F4F4F4"/>
<stop offset="1" stop-color="#F4F4F4" stop-opacity="0"/>
</linearGradient>
<linearGradient id="paint65_linear_1_463" x1="1140" y1="180" x2="1189.33" y2="243.333" gradientUnits="userSpaceOnUse">
<stop stop-color="#F4F4F4"/>
<stop offset="1" stop-color="#F4F4F4" stop-opacity="0"/>
</linearGradient>
<linearGradient id="paint66_linear_1_463" x1="60" y1="240" x2="1.78814e-06" y2="300" gradientUnits="userSpaceOnUse">
<stop stop-color="#F4F4F4"/>
<stop offset="1" stop-color="#F4F4F4" stop-opacity="0"/>
</linearGradient>
<linearGradient id="paint67_linear_1_463" x1="150" y1="300" x2="120" y2="257" gradientUnits="userSpaceOnUse">
<stop stop-color="#F4F4F4"/>
<stop offset="1" stop-color="#F4F4F4" stop-opacity="0"/>
</linearGradient>
<linearGradient id="paint68_linear_1_463" x1="180" y1="240" x2="229.333" y2="303.333" gradientUnits="userSpaceOnUse">
<stop stop-color="#F4F4F4"/>
<stop offset="1" stop-color="#F4F4F4" stop-opacity="0"/>
</linearGradient>
<linearGradient id="paint69_linear_1_463" x1="300" y1="240" x2="349.333" y2="303.333" gradientUnits="userSpaceOnUse">
<stop stop-color="#F4F4F4"/>
<stop offset="1" stop-color="#F4F4F4" stop-opacity="0"/>
</linearGradient>
<linearGradient id="paint70_linear_1_463" x1="420" y1="240" x2="360" y2="300" gradientUnits="userSpaceOnUse">
<stop stop-color="#F4F4F4"/>
<stop offset="1" stop-color="#F4F4F4" stop-opacity="0"/>
</linearGradient>
<linearGradient id="paint71_linear_1_463" x1="420" y1="240" x2="469.333" y2="303.333" gradientUnits="userSpaceOnUse">
<stop stop-color="#F4F4F4"/>
<stop offset="1" stop-color="#F4F4F4" stop-opacity="0"/>
</linearGradient>
<linearGradient id="paint72_linear_1_463" x1="540" y1="240" x2="480" y2="300" gradientUnits="userSpaceOnUse">
<stop stop-color="#F4F4F4"/>
<stop offset="1" stop-color="#F4F4F4" stop-opacity="0"/>
</linearGradient>
<linearGradient id="paint73_linear_1_463" x1="570" y1="300" x2="540" y2="257" gradientUnits="userSpaceOnUse">
<stop stop-color="#F4F4F4"/>
<stop offset="1" stop-color="#F4F4F4" stop-opacity="0"/>
</linearGradient>
<linearGradient id="paint74_linear_1_463" x1="660" y1="240" x2="600" y2="300" gradientUnits="userSpaceOnUse">
<stop stop-color="#F4F4F4"/>
<stop offset="1" stop-color="#F4F4F4" stop-opacity="0"/>
</linearGradient>
<linearGradient id="paint75_linear_1_463" x1="780" y1="240" x2="720" y2="300" gradientUnits="userSpaceOnUse">
<stop stop-color="#F4F4F4"/>
<stop offset="1" stop-color="#F4F4F4" stop-opacity="0"/>
</linearGradient>
<linearGradient id="paint76_linear_1_463" x1="900" y1="240" x2="840" y2="300" gradientUnits="userSpaceOnUse">
<stop stop-color="#F4F4F4"/>
<stop offset="1" stop-color="#F4F4F4" stop-opacity="0"/>
</linearGradient>
<linearGradient id="paint77_linear_1_463" x1="960" y1="240" x2="900" y2="300" gradientUnits="userSpaceOnUse">
<stop stop-color="#F4F4F4"/>
<stop offset="1" stop-color="#F4F4F4" stop-opacity="0"/>
</linearGradient>
<linearGradient id="paint78_linear_1_463" x1="960" y1="240" x2="1009.33" y2="303.333" gradientUnits="userSpaceOnUse">
<stop stop-color="#F4F4F4"/>
<stop offset="1" stop-color="#F4F4F4" stop-opacity="0"/>
</linearGradient>
<linearGradient id="paint79_linear_1_463" x1="1140" y1="240" x2="1080" y2="300" gradientUnits="userSpaceOnUse">
<stop stop-color="#F4F4F4"/>
<stop offset="1" stop-color="#F4F4F4" stop-opacity="0"/>
</linearGradient>
<linearGradient id="paint80_linear_1_463" x1="60" y1="300" x2="0" y2="360" gradientUnits="userSpaceOnUse">
<stop stop-color="#F4F4F4"/>
<stop offset="1" stop-color="#F4F4F4" stop-opacity="0"/>
</linearGradient>
<linearGradient id="paint81_linear_1_463" x1="60" y1="300" x2="109.333" y2="363.333" gradientUnits="userSpaceOnUse">
<stop stop-color="#F4F4F4"/>
<stop offset="1" stop-color="#F4F4F4" stop-opacity="0"/>
</linearGradient>
<linearGradient id="paint82_linear_1_463" x1="180" y1="300" x2="229.333" y2="363.333" gradientUnits="userSpaceOnUse">
<stop stop-color="#F4F4F4"/>
<stop offset="1" stop-color="#F4F4F4" stop-opacity="0"/>
</linearGradient>
<linearGradient id="paint83_linear_1_463" x1="240" y1="360" x2="300" y2="300" gradientUnits="userSpaceOnUse">
<stop stop-color="#F4F4F4"/>
<stop offset="1" stop-color="#F4F4F4" stop-opacity="0"/>
</linearGradient>
<linearGradient id="paint84_linear_1_463" x1="360" y1="300" x2="300" y2="360" gradientUnits="userSpaceOnUse">
<stop stop-color="#F4F4F4"/>
<stop offset="1" stop-color="#F4F4F4" stop-opacity="0"/>
</linearGradient>
<linearGradient id="paint85_linear_1_463" x1="420" y1="300" x2="360" y2="360" gradientUnits="userSpaceOnUse">
<stop stop-color="#F4F4F4"/>
<stop offset="1" stop-color="#F4F4F4" stop-opacity="0"/>
</linearGradient>
<linearGradient id="paint86_linear_1_463" x1="540" y1="300" x2="480" y2="360" gradientUnits="userSpaceOnUse">
<stop stop-color="#F4F4F4"/>
<stop offset="1" stop-color="#F4F4F4" stop-opacity="0"/>
</linearGradient>
<linearGradient id="paint87_linear_1_463" x1="600" y1="300" x2="649.333" y2="363.333" gradientUnits="userSpaceOnUse">
<stop stop-color="#F4F4F4"/>
<stop offset="1" stop-color="#F4F4F4" stop-opacity="0"/>
</linearGradient>
<linearGradient id="paint88_linear_1_463" x1="660" y1="360" x2="720" y2="300" gradientUnits="userSpaceOnUse">
<stop stop-color="#F4F4F4"/>
<stop offset="1" stop-color="#F4F4F4" stop-opacity="0"/>
</linearGradient>
<linearGradient id="paint89_linear_1_463" x1="720" y1="300" x2="769.333" y2="363.333" gradientUnits="userSpaceOnUse">
<stop stop-color="#F4F4F4"/>
<stop offset="1" stop-color="#F4F4F4" stop-opacity="0"/>
</linearGradient>
<linearGradient id="paint90_linear_1_463" x1="780" y1="360" x2="840" y2="300" gradientUnits="userSpaceOnUse">
<stop stop-color="#F4F4F4"/>
<stop offset="1" stop-color="#F4F4F4" stop-opacity="0"/>
</linearGradient>
<linearGradient id="paint91_linear_1_463" x1="900" y1="300" x2="840" y2="360" gradientUnits="userSpaceOnUse">
<stop stop-color="#F4F4F4"/>
<stop offset="1" stop-color="#F4F4F4" stop-opacity="0"/>
</linearGradient>
<linearGradient id="paint92_linear_1_463" x1="900" y1="360" x2="960" y2="300" gradientUnits="userSpaceOnUse">
<stop stop-color="#F4F4F4"/>
<stop offset="1" stop-color="#F4F4F4" stop-opacity="0"/>
</linearGradient>
<linearGradient id="paint93_linear_1_463" x1="990" y1="360" x2="960" y2="317" gradientUnits="userSpaceOnUse">
<stop stop-color="#F4F4F4"/>
<stop offset="1" stop-color="#F4F4F4" stop-opacity="0"/>
</linearGradient>
<linearGradient id="paint94_linear_1_463" x1="1020" y1="300" x2="1069.33" y2="363.333" gradientUnits="userSpaceOnUse">
<stop stop-color="#F4F4F4"/>
<stop offset="1" stop-color="#F4F4F4" stop-opacity="0"/>
</linearGradient>
<linearGradient id="paint95_linear_1_463" x1="1140" y1="300" x2="1080" y2="360" gradientUnits="userSpaceOnUse">
<stop stop-color="#F4F4F4"/>
<stop offset="1" stop-color="#F4F4F4" stop-opacity="0"/>
</linearGradient>
<linearGradient id="paint96_linear_1_463" x1="1140" y1="300" x2="1189.33" y2="363.333" gradientUnits="userSpaceOnUse">
<stop stop-color="#F4F4F4"/>
<stop offset="1" stop-color="#F4F4F4" stop-opacity="0"/>
</linearGradient>
<linearGradient id="paint97_linear_1_463" x1="60" y1="360" x2="1.78814e-06" y2="420" gradientUnits="userSpaceOnUse">
<stop stop-color="#F4F4F4"/>
<stop offset="1" stop-color="#F4F4F4" stop-opacity="0"/>
</linearGradient>
<linearGradient id="paint98_linear_1_463" x1="120" y1="360" x2="169.333" y2="423.333" gradientUnits="userSpaceOnUse">
<stop stop-color="#F4F4F4"/>
<stop offset="1" stop-color="#F4F4F4" stop-opacity="0"/>
</linearGradient>
<linearGradient id="paint99_linear_1_463" x1="180" y1="360" x2="229.333" y2="423.333" gradientUnits="userSpaceOnUse">
<stop stop-color="#F4F4F4"/>
<stop offset="1" stop-color="#F4F4F4" stop-opacity="0"/>
</linearGradient>
<linearGradient id="paint100_linear_1_463" x1="300" y1="360" x2="349.333" y2="423.333" gradientUnits="userSpaceOnUse">
<stop stop-color="#F4F4F4"/>
<stop offset="1" stop-color="#F4F4F4" stop-opacity="0"/>
</linearGradient>
<linearGradient id="paint101_linear_1_463" x1="420" y1="360" x2="360" y2="420" gradientUnits="userSpaceOnUse">
<stop stop-color="#F4F4F4"/>
<stop offset="1" stop-color="#F4F4F4" stop-opacity="0"/>
</linearGradient>
<linearGradient id="paint102_linear_1_463" x1="420" y1="360" x2="469.333" y2="423.333" gradientUnits="userSpaceOnUse">
<stop stop-color="#F4F4F4"/>
<stop offset="1" stop-color="#F4F4F4" stop-opacity="0"/>
</linearGradient>
<linearGradient id="paint103_linear_1_463" x1="540" y1="360" x2="480" y2="420" gradientUnits="userSpaceOnUse">
<stop stop-color="#F4F4F4"/>
<stop offset="1" stop-color="#F4F4F4" stop-opacity="0"/>
</linearGradient>
<linearGradient id="paint104_linear_1_463" x1="570" y1="420" x2="540" y2="377" gradientUnits="userSpaceOnUse">
<stop stop-color="#F4F4F4"/>
<stop offset="1" stop-color="#F4F4F4" stop-opacity="0"/>
</linearGradient>
<linearGradient id="paint105_linear_1_463" x1="660" y1="360" x2="600" y2="420" gradientUnits="userSpaceOnUse">
<stop stop-color="#F4F4F4"/>
<stop offset="1" stop-color="#F4F4F4" stop-opacity="0"/>
</linearGradient>
<linearGradient id="paint106_linear_1_463" x1="780" y1="360" x2="720" y2="420" gradientUnits="userSpaceOnUse">
<stop stop-color="#F4F4F4"/>
<stop offset="1" stop-color="#F4F4F4" stop-opacity="0"/>
</linearGradient>
<linearGradient id="paint107_linear_1_463" x1="900" y1="360" x2="840" y2="420" gradientUnits="userSpaceOnUse">
<stop stop-color="#F4F4F4"/>
<stop offset="1" stop-color="#F4F4F4" stop-opacity="0"/>
</linearGradient>
<linearGradient id="paint108_linear_1_463" x1="960" y1="360" x2="900" y2="420" gradientUnits="userSpaceOnUse">
<stop stop-color="#F4F4F4"/>
<stop offset="1" stop-color="#F4F4F4" stop-opacity="0"/>
</linearGradient>
<linearGradient id="paint109_linear_1_463" x1="960" y1="360" x2="1009.33" y2="423.333" gradientUnits="userSpaceOnUse">
<stop stop-color="#F4F4F4"/>
<stop offset="1" stop-color="#F4F4F4" stop-opacity="0"/>
</linearGradient>
<linearGradient id="paint110_linear_1_463" x1="1140" y1="360" x2="1080" y2="420" gradientUnits="userSpaceOnUse">
<stop stop-color="#F4F4F4"/>
<stop offset="1" stop-color="#F4F4F4" stop-opacity="0"/>
</linearGradient>
<linearGradient id="paint111_linear_1_463" x1="60" y1="420" x2="0" y2="480" gradientUnits="userSpaceOnUse">
<stop stop-color="#F4F4F4"/>
<stop offset="1" stop-color="#F4F4F4" stop-opacity="0"/>
</linearGradient>
<linearGradient id="paint112_linear_1_463" x1="60" y1="420" x2="109.333" y2="483.333" gradientUnits="userSpaceOnUse">
<stop stop-color="#F4F4F4"/>
<stop offset="1" stop-color="#F4F4F4" stop-opacity="0"/>
</linearGradient>
<linearGradient id="paint113_linear_1_463" x1="180" y1="420" x2="229.333" y2="483.333" gradientUnits="userSpaceOnUse">
<stop stop-color="#F4F4F4"/>
<stop offset="1" stop-color="#F4F4F4" stop-opacity="0"/>
</linearGradient>
<linearGradient id="paint114_linear_1_463" x1="240" y1="480" x2="300" y2="420" gradientUnits="userSpaceOnUse">
<stop stop-color="#F4F4F4"/>
<stop offset="1" stop-color="#F4F4F4" stop-opacity="0"/>
</linearGradient>
<linearGradient id="paint115_linear_1_463" x1="330" y1="480" x2="300" y2="437" gradientUnits="userSpaceOnUse">
<stop stop-color="#F4F4F4"/>
<stop offset="1" stop-color="#F4F4F4" stop-opacity="0"/>
</linearGradient>
<linearGradient id="paint116_linear_1_463" x1="420" y1="420" x2="360" y2="480" gradientUnits="userSpaceOnUse">
<stop stop-color="#F4F4F4"/>
<stop offset="1" stop-color="#F4F4F4" stop-opacity="0"/>
</linearGradient>
<linearGradient id="paint117_linear_1_463" x1="540" y1="420" x2="480" y2="480" gradientUnits="userSpaceOnUse">
<stop stop-color="#F4F4F4"/>
<stop offset="1" stop-color="#F4F4F4" stop-opacity="0"/>
</linearGradient>
<linearGradient id="paint118_linear_1_463" x1="600" y1="420" x2="649.333" y2="483.333" gradientUnits="userSpaceOnUse">
<stop stop-color="#F4F4F4"/>
<stop offset="1" stop-color="#F4F4F4" stop-opacity="0"/>
</linearGradient>
<linearGradient id="paint119_linear_1_463" x1="660" y1="480" x2="720" y2="420" gradientUnits="userSpaceOnUse">
<stop stop-color="#F4F4F4"/>
<stop offset="1" stop-color="#F4F4F4" stop-opacity="0"/>
</linearGradient>
<linearGradient id="paint120_linear_1_463" x1="720" y1="420" x2="769.333" y2="483.333" gradientUnits="userSpaceOnUse">
<stop stop-color="#F4F4F4"/>
<stop offset="1" stop-color="#F4F4F4" stop-opacity="0"/>
</linearGradient>
<linearGradient id="paint121_linear_1_463" x1="780" y1="480" x2="840" y2="420" gradientUnits="userSpaceOnUse">
<stop stop-color="#F4F4F4"/>
<stop offset="1" stop-color="#F4F4F4" stop-opacity="0"/>
</linearGradient>
<linearGradient id="paint122_linear_1_463" x1="900" y1="420" x2="840" y2="480" gradientUnits="userSpaceOnUse">
<stop stop-color="#F4F4F4"/>
<stop offset="1" stop-color="#F4F4F4" stop-opacity="0"/>
</linearGradient>
<linearGradient id="paint123_linear_1_463" x1="900" y1="480" x2="960" y2="420" gradientUnits="userSpaceOnUse">
<stop stop-color="#F4F4F4"/>
<stop offset="1" stop-color="#F4F4F4" stop-opacity="0"/>
</linearGradient>
<linearGradient id="paint124_linear_1_463" x1="1020" y1="420" x2="960" y2="480" gradientUnits="userSpaceOnUse">
<stop stop-color="#F4F4F4"/>
<stop offset="1" stop-color="#F4F4F4" stop-opacity="0"/>
</linearGradient>
<linearGradient id="paint125_linear_1_463" x1="1020" y1="420" x2="1069.33" y2="483.333" gradientUnits="userSpaceOnUse">
<stop stop-color="#F4F4F4"/>
<stop offset="1" stop-color="#F4F4F4" stop-opacity="0"/>
</linearGradient>
<linearGradient id="paint126_linear_1_463" x1="1140" y1="420" x2="1080" y2="480" gradientUnits="userSpaceOnUse">
<stop stop-color="#F4F4F4"/>
<stop offset="1" stop-color="#F4F4F4" stop-opacity="0"/>
</linearGradient>
<linearGradient id="paint127_linear_1_463" x1="1140" y1="420" x2="1189.33" y2="483.333" gradientUnits="userSpaceOnUse">
<stop stop-color="#F4F4F4"/>
<stop offset="1" stop-color="#F4F4F4" stop-opacity="0"/>
</linearGradient>
</defs>
</svg>
