<svg width="62" height="44" viewBox="0 0 62 44" fill="none" xmlns="http://www.w3.org/2000/svg">
<path d="M16.9032 1C44.3685 1 73.4423 8.72243 53.7312 32.8634C49.8474 37.6201 44.5432 41.2693 38.4991 42.3551C9.26659 47.6065 -21.7524 19.4941 28.2391 4.93937" stroke="black" stroke-width="2"/>
<path d="M16.9032 1C44.3685 1 73.4423 8.72243 53.7312 32.8634C49.8474 37.6201 44.5432 41.2693 38.4991 42.3551C9.26659 47.6065 -21.7524 19.4941 28.2391 4.93937" stroke="black" stroke-width="2"/>
<path d="M35.3186 16.8555L31.3245 19.6191C31.4905 19.668 35.7288 20.127 35.7288 24.8145C35.7288 28.1445 33.1116 30.2148 29.8108 30.2148C27.2717 30.2148 25.1819 29.0625 24.5764 28.6035V26.2012C25.6506 26.9238 27.7209 28.2324 29.7815 28.2715L29.8108 28.2812C31.803 28.252 33.5315 27.1484 33.5315 24.8145C33.5315 21.6992 29.967 21.4746 28.551 21.4062L27.4084 21.4355V19.7656L31.4417 16.9336L24.9182 16.9434L24.9377 15.1074H35.3284L35.3186 16.8555Z" fill="black"/>
</svg>
