<svg width="62" height="44" viewBox="0 0 62 44" fill="none" xmlns="http://www.w3.org/2000/svg">
<path d="M45.0969 43C17.6316 43 -11.4422 35.2776 8.26882 11.1366C12.1526 6.37987 17.4569 2.73071 23.501 1.64493C52.7335 -3.60647 83.7525 24.5059 33.7609 39.0606" stroke="black" stroke-width="2"/>
<path d="M36.0237 19.0527C36.0237 21.0059 34.4612 22.4902 34.1682 22.7832L28.4944 28.1543L35.7893 28.1445L35.76 29.9902L25.4475 29.9707L25.4573 28.2617L32.469 21.6016C33.2991 20.791 33.885 20.1953 33.885 19.0723V19.043C33.885 17.8906 33.1038 16.8555 31.1506 16.8555H31.1018C28.7874 16.875 26.1116 19.2383 25.6526 19.4043L25.6331 17.1094C26.053 16.7188 27.928 14.8926 31.1018 14.8633H31.1506C33.2991 14.8633 36.0139 16.3477 36.0237 19.0332V19.0527Z" fill="black"/>
</svg>
