<svg width="24" height="25" viewBox="0 0 24 25" fill="none" xmlns="http://www.w3.org/2000/svg">
<path d="M12 2.75C10.0716 2.75 8.18657 3.32183 6.58319 4.39317C4.97982 5.46451 3.73013 6.98726 2.99218 8.76884C2.25422 10.5504 2.06114 12.5108 2.43735 14.4021C2.81355 16.2934 3.74215 18.0307 5.10571 19.3943C6.46928 20.7579 8.20656 21.6865 10.0979 22.0627C11.9892 22.4389 13.9496 22.2458 15.7312 21.5078C17.5127 20.7699 19.0355 19.5202 20.1068 17.9168C21.1782 16.3134 21.75 14.4284 21.75 12.5C21.7473 9.91498 20.7192 7.43661 18.8913 5.60872C17.0634 3.78084 14.585 2.75273 12 2.75ZM18.8653 16.4619C18.3375 17.3056 17.5219 17.75 16.5066 17.75C14.5631 17.75 13.2431 15.3772 11.8453 12.8647C10.8253 11.0309 9.55594 8.75 8.49469 8.75C7.32938 8.75 6 11.4575 6 13.8322C6 14.6066 6.14063 15.2384 6.40688 15.6659C6.65625 16.0625 7.00125 16.25 7.49344 16.25C8.06344 16.25 8.76094 15.5938 9.62532 14.2334C9.73496 14.0722 9.9031 13.96 10.0941 13.9206C10.2851 13.8812 10.4839 13.9178 10.6484 14.0225C10.8129 14.1272 10.9301 14.2919 10.9752 14.4816C11.0203 14.6714 10.9897 14.8712 10.89 15.0387C9.36 17.4416 8.27063 17.75 7.49344 17.75C6.47813 17.75 5.6625 17.3047 5.13469 16.4619C4.71938 15.7981 4.5 14.8887 4.5 13.8369C4.51654 12.3643 4.86926 10.9149 5.53125 9.59937C6.31313 8.08437 7.36594 7.25 8.49469 7.25C10.4381 7.25 11.7581 9.62281 13.1559 12.1353C14.1759 13.9681 15.4453 16.25 16.5066 16.25C16.9988 16.25 17.3438 16.0625 17.5931 15.6659C17.8594 15.2413 18 14.6066 18 13.8322C18 11.4575 16.6706 8.75 15.5053 8.75C15.1866 8.75 14.8163 8.96656 14.4047 9.395C14.3364 9.46604 14.2548 9.52293 14.1646 9.56244C14.0743 9.60194 13.9772 9.62328 13.8787 9.62524C13.7802 9.6272 13.6822 9.60974 13.5905 9.57385C13.4987 9.53797 13.4149 9.48436 13.3439 9.41609C13.2729 9.34783 13.216 9.26624 13.1765 9.17598C13.137 9.08573 13.1156 8.98857 13.1137 8.89007C13.1117 8.79157 13.1292 8.69365 13.1651 8.60189C13.2009 8.51014 13.2545 8.42635 13.3228 8.35531C14.0381 7.61188 14.7516 7.25 15.5053 7.25C16.6303 7.25 17.6869 8.08437 18.4697 9.59937C19.131 10.9135 19.4837 12.3612 19.5009 13.8322C19.5 14.8888 19.2806 15.7981 18.8653 16.4619Z" fill="white"/>
</svg>
