<svg width="104" height="221" viewBox="0 0 104 221" fill="none" xmlns="http://www.w3.org/2000/svg">
<path d="M13.6027 220.423C14.3888 221.199 15.6551 221.191 16.431 220.405L29.0759 207.595C29.8519 206.808 29.8436 205.542 29.0575 204.766C28.2714 203.99 27.0051 203.998 26.2292 204.785L14.9893 216.172L3.60222 204.932C2.81611 204.156 1.54981 204.164 0.773857 204.95C-0.00209522 205.736 0.0061388 207.003 0.79225 207.779L13.6027 220.423ZM94.0367 4.1747L94.7289 2.2983L94.0367 4.1747ZM17.0076 218.987C16.8087 188.402 20.4678 128.93 32.1801 80.1331C38.0446 55.6995 45.8753 34.1781 56.0896 20.277C61.1844 13.3434 66.7829 8.42925 72.9029 5.92153C78.9707 3.43518 85.7263 3.24079 93.3446 6.0511L94.7289 2.2983C86.2557 -0.82739 78.4606 -0.678573 71.3862 2.2202C64.364 5.0976 58.2288 10.6105 52.8663 17.9085C42.166 32.4708 34.1874 54.6312 28.2905 79.1996C16.48 128.406 12.8075 188.22 13.0077 219.013L17.0076 218.987ZM93.3446 6.0511C97.3515 7.52921 99.7504 10.8573 99.9817 15.2688C100.217 19.7638 98.1851 25.5673 92.7754 31.5718C81.9634 43.5725 58.0163 55.9033 14.8666 58.9543L15.1487 62.9443C58.8113 59.8571 83.9581 47.3344 95.7472 34.2492C101.638 27.7107 104.283 20.9132 103.976 15.0594C103.665 9.12218 100.301 4.35391 94.7289 2.2983L93.3446 6.0511Z" fill="#FFB930"/>
</svg>
