<svg width="20" height="21" viewBox="0 0 20 21" fill="none" xmlns="http://www.w3.org/2000/svg">
<path d="M9.20832 12.9582L7.66666 14.4998C7.34166 14.8248 6.82499 14.8248 6.49166 14.5082C6.39999 14.4165 6.30832 14.3332 6.21666 14.2415C5.35832 13.3748 4.58332 12.4665 3.89166 11.5165C3.20832 10.5665 2.65832 9.6165 2.25832 8.67484C1.86666 7.72484 1.66666 6.8165 1.66666 5.94984C1.66666 5.38317 1.76666 4.8415 1.96666 4.3415C2.16666 3.83317 2.48332 3.3665 2.92499 2.94984C3.45832 2.42484 4.04166 2.1665 4.65832 2.1665C4.89166 2.1665 5.12499 2.2165 5.33332 2.3165C5.54999 2.4165 5.74166 2.5665 5.89166 2.78317L7.82499 5.50817C7.97499 5.7165 8.08332 5.90817 8.15832 6.0915C8.23332 6.2665 8.27499 6.4415 8.27499 6.59984C8.27499 6.79984 8.21666 6.99984 8.09999 7.1915C7.99166 7.38317 7.83332 7.58317 7.63332 7.78317L6.99999 8.4415C6.90832 8.53317 6.86666 8.6415 6.86666 8.77484C6.86666 8.8415 6.87499 8.89984 6.89166 8.9665C6.91666 9.03317 6.94166 9.08317 6.95832 9.13317C7.10832 9.40817 7.36666 9.7665 7.73332 10.1998C8.10832 10.6332 8.50832 11.0748 8.94166 11.5165C9.02499 11.5998 9.11666 11.6832 9.19999 11.7665C9.53332 12.0915 9.54166 12.6248 9.20832 12.9582Z" fill="white"/>
<path d="M18.3083 15.7752C18.3083 16.0085 18.2667 16.2502 18.1833 16.4835C18.1583 16.5502 18.1333 16.6169 18.1 16.6835C17.9583 16.9835 17.775 17.2669 17.5333 17.5335C17.125 17.9835 16.675 18.3085 16.1667 18.5169C16.1583 18.5169 16.15 18.5252 16.1417 18.5252C15.65 18.7252 15.1167 18.8335 14.5417 18.8335C13.6917 18.8335 12.7833 18.6335 11.825 18.2252C10.8667 17.8169 9.90833 17.2669 8.95833 16.5752C8.63333 16.3335 8.30833 16.0919 8 15.8335L10.725 13.1085C10.9583 13.2835 11.1667 13.4169 11.3417 13.5085C11.3833 13.5252 11.4333 13.5502 11.4917 13.5752C11.5583 13.6002 11.625 13.6085 11.7 13.6085C11.8417 13.6085 11.95 13.5585 12.0417 13.4669L12.675 12.8419C12.8833 12.6335 13.0833 12.4752 13.275 12.3752C13.4667 12.2585 13.6583 12.2002 13.8667 12.2002C14.025 12.2002 14.1917 12.2335 14.375 12.3085C14.5583 12.3835 14.75 12.4919 14.9583 12.6335L17.7167 14.5919C17.9333 14.7419 18.0833 14.9169 18.175 15.1252C18.2583 15.3335 18.3083 15.5419 18.3083 15.7752Z" fill="white"/>
</svg>
