<svg width="20" height="21" viewBox="0 0 20 21" fill="none" xmlns="http://www.w3.org/2000/svg">
<path d="M18.0417 8.85811C17.7167 8.39144 17.1417 8.12477 16.4833 8.12477H13.0667C12.8417 8.12477 12.6333 8.03311 12.4917 7.86644C12.3417 7.69978 12.2833 7.46644 12.3167 7.22478L12.7417 4.49144C12.925 3.67478 12.3833 2.75811 11.5667 2.48311C10.8083 2.19978 9.91668 2.58311 9.55835 3.12478L6.04168 8.34978L5.94168 8.51644V15.8831L6.06668 16.0081L8.70835 18.0498C9.05835 18.3998 9.85001 18.5914 10.4083 18.5914H13.6583C14.775 18.5914 15.9 17.7498 16.15 16.7248L18.2 10.4831C18.4167 9.89144 18.3583 9.31644 18.0417 8.85811Z" fill="white"/>
<path d="M4.34166 5.81689H3.48332C2.19166 5.81689 1.66666 6.31689 1.66666 7.55023V15.9336C1.66666 17.1669 2.19166 17.6669 3.48332 17.6669H4.34166C5.63332 17.6669 6.15832 17.1669 6.15832 15.9336V7.55023C6.15832 6.31689 5.63332 5.81689 4.34166 5.81689Z" fill="white"/>
</svg>
