<svg width="24" height="25" viewBox="0 0 24 25" fill="none" xmlns="http://www.w3.org/2000/svg">
<path d="M23.0306 7.78056L20.2275 10.5837C19.6612 17.1481 14.1253 22.2499 7.49999 22.2499C6.13874 22.2499 5.01655 22.0343 4.16436 21.6087C3.47717 21.2646 3.19592 20.8962 3.12561 20.7912C3.06291 20.6972 3.02228 20.5902 3.00674 20.4782C2.99119 20.3663 3.00115 20.2523 3.03586 20.1448C3.07056 20.0372 3.12913 19.9389 3.20717 19.8572C3.28521 19.7754 3.38072 19.7124 3.48655 19.6727C3.51092 19.6634 5.75905 18.7999 7.18686 17.1565C6.39503 16.5055 5.70381 15.741 5.13561 14.8877C3.97311 13.1618 2.67186 10.1637 3.07311 5.68337C3.08583 5.54101 3.13896 5.40525 3.22625 5.29207C3.31354 5.17889 3.43136 5.09301 3.56582 5.04454C3.70028 4.99608 3.8458 4.98704 3.98522 5.01851C4.12465 5.04997 4.25218 5.12061 4.3528 5.22212C4.38561 5.25494 7.4728 8.32525 11.2472 9.32087V8.74994C11.2457 8.15124 11.3641 7.55831 11.5953 7.00606C11.8265 6.45381 12.1659 5.95341 12.5934 5.53431C13.0086 5.11968 13.5027 4.79241 14.0464 4.57182C14.5902 4.35123 15.1726 4.24178 15.7594 4.24994C16.5464 4.2577 17.3181 4.46899 17.9994 4.86325C18.6807 5.25752 19.2483 5.82135 19.6472 6.49994H22.5C22.6484 6.49982 22.7935 6.54374 22.917 6.62615C23.0404 6.70855 23.1366 6.82573 23.1935 6.96284C23.2503 7.09996 23.2651 7.25085 23.2361 7.39642C23.2071 7.54198 23.1356 7.67567 23.0306 7.78056Z" fill="white"/>
</svg>
